<?xml version="1.0" encoding="utf-8"?>
<!-- Generator: Adobe Illustrator 25.0.1, SVG Export Plug-In . SVG Version: 6.00 Build 0)  -->
<svg version="1.1"
	 id="Layer_1" inkscape:version="1.0.1 (c497b03c, 2020-09-10)" sodipodi:docname="logo.svg" xmlns:cc="http://creativecommons.org/ns#" xmlns:dc="http://purl.org/dc/elements/1.1/" xmlns:inkscape="http://www.inkscape.org/namespaces/inkscape" xmlns:rdf="http://www.w3.org/1999/02/22-rdf-syntax-ns#" xmlns:sodipodi="http://sodipodi.sourceforge.net/DTD/sodipodi-0.dtd" xmlns:svg="http://www.w3.org/2000/svg"
	 xmlns="http://www.w3.org/2000/svg" xmlns:xlink="http://www.w3.org/1999/xlink" x="0px" y="0px" viewBox="0 0 128 128"
	 style="enable-background:new 0 0 128 128;" xml:space="preserve">
<style type="text/css">
	.st0{fill:#E2309A;}
</style>
<g>
	<path class="st0" d="M123.4,19.6h-1.1l-89.1,0.2c-0.1,0-0.1,0-0.2,0c0,0-0.6-2.5-0.8-3.3C30.6,6.3,21.5,0,11.5,0.1
		C7.6,0.1,0-1,0,4.9c-0.1,6.1,7.6,4.9,11.5,5c4.8-0.4,7.6,1.3,9.4,4.1c3.3,5.1,2.7,6,3.1,11.9c0.6,9.9,1.8,39.1,2.2,48.8
		c0.1,5.1,0.3,6.9,2.1,11.7c2.1,6.7,4.5,10.9,8.3,13.5c4.8,3.3,10.8,3.6,20.5,3.5h53c2.5,0,4.6-2.1,4.6-4.8c0-2.6-2-4.8-4.6-4.8h-53
		H57c-7.9,0.1-12.6,0-15.3-1.9c-2.2-1.6-3.9-5.1-5.5-11.5h75.1c2.1,0,4-1.5,4.4-3.7l12-50.8c0.1-0.5,0.2-1,0.2-1.5
		C128,21.8,126,19.6,123.4,19.6z M49.6,42.1l-1.9,8.9c-1.4,5.7-8.4,3.8-7.3-1.7c0,0,1.9-8.9,1.9-8.9c0.4-2.1,2-3.5,3.8-3.5
		C48.5,36.9,50.1,39.5,49.6,42.1z M71.4,47.3l-1.9,8.9c-1.4,5.7-8.4,3.8-7.3-1.7c0,0,1.9-8.9,1.9-8.9c0.4-2.1,2-3.5,3.8-3.5
		C70.4,42.2,72,44.7,71.4,47.3z M93.3,52.6l-1.9,8.9c-1.4,5.7-8.4,3.8-7.3-1.7c0,0,1.9-8.9,1.9-8.9c0.4-2.1,2-3.5,3.8-3.5
		C92.2,47.4,93.8,49.9,93.3,52.6z"/>
	<circle class="st0" cx="95.3" cy="116.6" r="11.4"/>
	<circle class="st0" cx="42.9" cy="114.4" r="11.4"/>
</g>
</svg>
